<?xml version="1.0" standalone="no"?>
<!DOCTYPE svg PUBLIC "-//W3C//DTD SVG 20010904//EN"
 "http://www.w3.org/TR/2001/REC-SVG-20010904/DTD/svg10.dtd">
<svg version="1.0" xmlns="http://www.w3.org/2000/svg"
 width="500.000000pt" height="500.000000pt" viewBox="0 0 500.000000 500.000000"
 preserveAspectRatio="xMidYMid meet">

<g transform="translate(0.000000,500.000000) scale(0.100000,-0.100000)"
fill="#000000" stroke="none">
<path d="M2500 4279 c-13 -5 -28 -15 -32 -22 -4 -7 -8 -119 -8 -249 0 -202 2
-239 16 -252 40 -41 62 -11 66 89 2 56 6 74 12 60 49 -116 90 -170 122 -163
29 5 27 32 -5 83 -17 27 -36 64 -42 83 -10 30 -9 36 5 44 67 38 59 233 -13
302 -31 30 -83 41 -121 25z m93 -99 c34 -66 9 -182 -36 -164 -14 5 -17 22 -17
106 0 89 2 99 18 96 9 -2 25 -19 35 -38z"/>
<path d="M1631 4255 c-48 -41 -71 -118 -71 -239 0 -117 17 -189 56 -236 21
-25 33 -30 69 -30 74 0 122 62 113 150 -2 28 -8 36 -27 38 -29 4 -41 -12 -41
-55 0 -38 -32 -76 -55 -67 -29 11 -47 108 -43 223 4 109 20 162 53 174 22 9
45 -31 52 -91 6 -53 22 -69 57 -56 22 9 21 87 -3 140 -35 76 -102 97 -160 49z"/>
<path d="M1867 4273 c-4 -3 -7 -120 -7 -259 0 -240 1 -254 19 -264 46 -24 67
14 59 108 -7 78 -4 82 53 82 l49 0 0 -84 c0 -64 4 -88 16 -100 18 -19 20 -19
45 -6 18 10 19 24 19 265 l0 255 -25 6 c-48 12 -55 -7 -55 -142 l0 -124 -50 0
-50 0 0 123 c0 82 -4 127 -12 135 -13 13 -50 16 -61 5z"/>
<path d="M2251 4258 c-5 -13 -14 -57 -20 -98 -6 -41 -25 -146 -42 -233 -17
-87 -28 -165 -25 -173 11 -30 50 -12 70 33 30 63 86 66 101 6 3 -15 11 -34 17
-40 14 -18 47 -16 54 2 3 8 -12 113 -35 232 -23 120 -41 229 -41 244 0 31 -17
49 -47 49 -15 0 -27 -8 -32 -22z m55 -290 l7 -68 -27 0 c-31 0 -31 5 -14 117
10 67 13 74 19 49 5 -16 11 -60 15 -98z"/>
<path d="M2742 4268 c-9 -9 -12 -79 -12 -254 0 -207 2 -245 16 -258 8 -9 21
-16 28 -16 33 0 36 22 36 276 0 220 -2 253 -16 258 -24 9 -39 7 -52 -6z"/>
<path d="M2850 4265 c-23 -28 -8 -50 40 -55 l45 -5 8 -60 c5 -33 6 -131 3
-217 -5 -134 -4 -159 10 -172 8 -9 21 -16 28 -16 33 0 36 23 36 242 l0 218 25
5 c14 3 36 7 49 10 31 6 42 36 20 52 -27 19 -247 18 -264 -2z"/>
<path d="M3155 4268 c-3 -7 20 -83 51 -168 48 -133 57 -168 61 -247 6 -98 16
-120 53 -108 18 6 20 14 20 101 0 91 2 99 61 254 33 88 58 164 54 170 -9 14
-51 12 -64 -3 -6 -8 -25 -56 -43 -108 -18 -52 -37 -94 -43 -94 -5 0 -25 42
-43 94 -18 52 -37 100 -43 108 -14 16 -58 17 -64 1z"/>
<path d="M1312 3613 c-5 -10 -12 -61 -15 -113 -4 -74 -13 -117 -41 -195 l-36
-100 0 -347 0 -346 25 -31 c29 -34 85 -56 121 -47 20 5 24 3 24 -14 0 -59 58
-112 124 -114 34 -1 48 -9 82 -44 36 -36 48 -42 83 -42 73 0 131 47 131 105 0
23 3 25 49 25 51 0 90 21 114 63 8 15 14 96 17 255 l5 232 35 -44 c46 -58 78
-76 133 -76 77 0 139 75 121 146 -9 39 -237 396 -291 456 -55 62 -81 114 -91
179 -8 58 -30 82 -59 63 -14 -9 -18 -25 -17 -75 1 -77 24 -128 101 -221 64
-77 273 -406 273 -429 0 -22 -25 -42 -47 -37 -23 4 -151 156 -159 188 -13 61
-43 83 -73 56 -20 -19 -21 -29 -21 -338 l0 -318 -25 -12 c-21 -9 -29 -9 -42 4
-13 14 -15 46 -14 212 1 212 -5 246 -42 246 -46 0 -47 -8 -47 -296 0 -234 -2
-275 -16 -288 -19 -20 -25 -20 -50 -2 -18 14 -19 30 -22 288 -1 150 -5 279 -7
286 -6 15 -47 16 -63 0 -9 -9 -12 -77 -12 -243 0 -166 -3 -234 -12 -243 -16
-16 -55 -15 -65 1 -4 6 -10 117 -13 246 -4 209 -7 235 -22 245 -13 8 -23 8
-35 0 -16 -10 -19 -33 -23 -180 -3 -93 -9 -175 -13 -181 -13 -20 -55 -15 -67
8 -8 14 -10 119 -8 342 l4 322 37 101 c41 113 60 261 38 302 -14 27 -56 29
-69 5z"/>
<path d="M2664 3620 c-41 -16 -74 -68 -74 -116 0 -33 -4 -44 -15 -44 -56 0
-115 -69 -115 -135 0 -33 -5 -43 -29 -59 -31 -21 -61 -74 -61 -107 0 -37 38
-96 74 -113 18 -9 40 -16 48 -16 10 0 13 -9 10 -28 -5 -39 21 -97 54 -119 25
-16 58 -19 268 -23 l241 -5 -53 -39 c-29 -21 -59 -51 -67 -67 -47 -90 28 -199
126 -186 44 6 391 223 473 296 55 49 117 80 158 81 15 0 39 4 53 10 22 8 26
15 23 42 l-3 33 -60 0 c-73 -1 -154 -35 -217 -93 -24 -22 -128 -95 -232 -161
-206 -133 -238 -144 -244 -86 -3 27 6 37 89 103 50 39 101 72 113 72 48 0 65
63 23 79 -13 5 -162 10 -331 10 -169 1 -312 3 -317 7 -13 8 -11 48 3 62 9 9
71 12 219 12 175 0 210 2 223 16 21 20 20 37 -2 57 -16 14 -55 17 -292 19
-247 3 -274 5 -284 21 -8 12 -8 22 0 35 10 15 39 17 293 22 236 4 283 7 291
20 14 22 12 36 -6 54 -13 14 -50 16 -249 16 -224 0 -235 1 -245 20 -7 14 -8
26 0 39 10 19 24 20 246 23 220 3 237 4 250 22 18 25 18 31 -2 50 -13 13 -44
16 -185 16 l-169 0 -12 26 c-11 23 -10 29 12 46 23 19 38 20 345 16 l320 -4
80 -31 c104 -42 154 -52 242 -53 90 0 103 5 103 41 0 38 -20 47 -117 48 -60 1
-101 8 -155 27 -148 52 -162 54 -503 53 -176 0 -329 -4 -341 -9z"/>
<path d="M2259 2637 c-94 -35 -139 -101 -139 -205 0 -101 51 -201 160 -311 65
-66 194 -161 219 -161 29 0 155 92 226 165 125 128 180 254 155 354 -25 101
-99 165 -191 164 -58 -1 -94 -20 -148 -78 -46 -50 -48 -50 -81 7 -14 24 -88
65 -130 72 -19 3 -51 0 -71 -7z m101 -94 c32 -22 48 -43 86 -112 43 -78 68
-77 111 4 38 72 93 125 128 125 65 0 115 -59 115 -137 0 -60 -51 -151 -127
-229 -69 -70 -151 -134 -174 -134 -18 0 -109 71 -165 129 -31 32 -58 51 -72
51 -13 0 -34 12 -49 26 -24 24 -25 29 -19 102 9 102 21 136 57 167 35 29 74
32 109 8z m433 -253 c-3 -11 -9 -17 -15 -14 -5 3 -4 12 3 20 16 19 18 18 12
-6z"/>
<path d="M2210 2331 c0 -45 37 -97 56 -79 4 5 -44 98 -52 98 -2 0 -4 -9 -4
-19z"/>
<path d="M3248 2454 c-30 -16 -58 -61 -58 -92 0 -15 -8 -19 -44 -19 -49 0 -87
-20 -113 -60 -16 -24 -18 -56 -20 -248 -1 -121 -2 -226 -3 -233 0 -8 -20 11
-45 41 -49 60 -95 83 -145 72 -69 -15 -118 -91 -100 -154 11 -40 245 -405 297
-463 55 -62 73 -97 80 -159 9 -76 47 -103 78 -56 31 48 -12 179 -86 263 -51
57 -289 425 -289 446 0 20 21 38 45 38 27 0 156 -157 170 -209 9 -29 16 -37
39 -39 16 -2 32 2 37 10 5 7 9 155 9 328 0 325 2 340 39 340 44 -1 46 -10 51
-236 4 -192 7 -218 23 -228 12 -8 22 -8 35 0 15 10 17 39 22 293 5 290 7 301
45 301 38 0 40 -11 45 -301 5 -254 7 -283 23 -293 12 -8 22 -8 35 0 15 10 18
36 22 245 3 129 9 240 13 247 11 16 52 16 66 -1 7 -9 12 -95 13 -247 3 -209 5
-234 21 -244 12 -8 22 -8 35 0 15 10 18 33 22 180 3 93 9 175 13 182 11 16 52
15 66 -2 9 -10 11 -102 9 -343 -3 -318 -4 -330 -27 -388 -36 -93 -51 -153 -57
-240 -6 -71 -4 -83 14 -105 17 -21 23 -23 45 -13 23 11 25 17 29 110 4 74 11
116 32 173 16 41 32 91 37 110 5 19 9 187 9 373 0 296 -2 342 -16 367 -23 38
-64 60 -113 60 -36 0 -41 3 -41 24 0 54 -78 112 -137 103 -29 -5 -35 -2 -48
23 -29 55 -117 77 -177 44z"/>
<path d="M1709 2006 c-107 -68 -216 -143 -243 -167 -61 -54 -129 -89 -173 -89
-47 0 -73 -16 -73 -44 0 -38 23 -49 83 -42 72 9 140 43 212 104 55 47 378 260
416 274 20 8 59 -17 59 -37 0 -28 -168 -165 -213 -174 -38 -8 -56 -34 -41 -58
10 -16 41 -18 333 -23 304 -5 323 -6 337 -24 12 -17 12 -23 0 -40 -13 -20 -25
-21 -230 -26 -178 -4 -218 -8 -226 -20 -13 -20 -12 -23 4 -46 14 -18 30 -19
288 -22 150 -1 279 -4 286 -7 16 -6 16 -50 -1 -64 -9 -7 -106 -12 -287 -13
-263 -3 -273 -4 -286 -24 -12 -17 -12 -23 0 -40 13 -18 32 -19 252 -24 211 -4
238 -7 248 -22 8 -13 8 -23 0 -35 -10 -16 -35 -18 -244 -21 -152 -1 -238 -6
-247 -13 -16 -14 -17 -51 -1 -67 8 -8 62 -12 178 -12 170 0 190 -4 190 -41 0
-38 -18 -40 -350 -39 l-323 0 -101 36 c-104 37 -249 55 -311 40 -22 -6 -26
-11 -23 -39 l3 -32 101 -7 c82 -6 121 -15 200 -45 l99 -37 357 -1 357 0 30 29
c32 31 53 83 45 113 -4 14 5 22 38 33 55 19 88 67 88 126 0 37 4 45 30 60 31
19 60 68 60 103 0 59 -62 131 -111 131 -12 0 -18 13 -21 51 -4 40 -12 58 -37
82 l-31 32 -247 5 -247 5 53 40 c62 47 81 79 81 136 0 35 -6 48 -39 80 -33 34
-45 39 -83 39 -40 0 -65 -13 -239 -124z"/>
<path d="M1878 916 c-39 -19 -60 -76 -60 -163 1 -115 28 -173 83 -173 34 0 65
30 73 72 7 36 1 48 -25 48 -13 0 -19 -7 -19 -23 0 -33 -25 -65 -40 -51 -27 27
-38 140 -19 207 17 63 58 60 59 -4 0 -29 23 -55 40 -44 16 10 12 67 -9 101
-22 36 -50 46 -83 30z"/>
<path d="M2083 919 c-100 -37 -88 -339 13 -339 63 0 94 58 94 173 0 116 -47
188 -107 166z m49 -61 c19 -36 16 -180 -5 -212 -24 -35 -35 -33 -54 11 -18 45
-14 183 7 207 18 22 37 20 52 -6z"/>
<path d="M2889 917 c-54 -27 -81 -136 -60 -238 14 -66 41 -99 81 -99 37 0 70
41 70 86 0 27 -4 34 -19 34 -14 0 -21 -10 -25 -35 -8 -42 -23 -53 -44 -31 -25
25 -24 208 0 233 23 22 39 8 47 -44 5 -29 11 -38 26 -38 44 0 17 119 -31 136
-12 4 -31 2 -45 -4z"/>
<path d="M2225 908 c-3 -7 -4 -83 -2 -168 2 -152 2 -155 25 -158 21 -3 22 -1
22 92 0 53 4 96 8 96 5 0 21 -42 38 -92 28 -91 30 -93 62 -96 l32 -3 0 170 0
171 -25 0 c-24 0 -24 -1 -27 -107 l-3 -108 -36 105 c-32 96 -38 105 -62 108
-16 2 -29 -2 -32 -10z"/>
<path d="M2442 753 c3 -166 3 -168 26 -171 22 -3 22 -1 22 94 0 54 3 94 8 90
4 -4 21 -47 37 -94 29 -83 31 -87 60 -87 l30 0 0 165 c0 163 0 165 -22 168
-23 3 -23 2 -23 -104 0 -62 -4 -104 -9 -98 -5 5 -23 53 -41 107 -30 93 -33 97
-61 97 l-29 0 2 -167z"/>
<path d="M2664 907 c-2 -7 -3 -82 -2 -167 l3 -155 60 0 c47 0 60 3 60 15 0 10
-13 17 -35 20 -33 5 -35 7 -35 45 0 36 3 40 28 43 37 4 35 31 -3 39 -31 6 -31
6 -28 67 l3 61 35 5 c23 3 36 11 38 23 3 15 -5 17 -58 17 -40 0 -62 -4 -66
-13z"/>
<path d="M3017 913 c-15 -14 -6 -33 16 -33 42 0 47 -16 47 -163 0 -138 0 -138
23 -135 22 3 22 6 22 138 0 74 4 141 8 148 5 6 19 12 33 12 17 0 24 5 24 20 0
18 -7 20 -83 20 -46 0 -87 -3 -90 -7z"/>
</g>
</svg>
